<svg width="530" height="271" viewBox="0 0 530 271" fill="none" xmlns="http://www.w3.org/2000/svg">
<g id="notasks">
<rect id="Rectangle 1" width="530" height="271" rx="5" fill="#D8F5D8"/>
<g id="You don&#226;&#128;&#153;t have any task yet... &#226;&#128;&#168; Try to create a new task">
<path d="M86.9961 43.5156L91.7949 52.7959L96.6064 43.5156H99.3867L93.0137 55.0938V62H90.5635V55.0938L84.1904 43.5156H86.9961ZM99.9453 55.2842V54.9922C99.9453 54.002 100.089 53.0837 100.377 52.2373C100.665 51.3825 101.079 50.6419 101.621 50.0156C102.163 49.3809 102.819 48.89 103.589 48.543C104.359 48.1875 105.222 48.0098 106.179 48.0098C107.144 48.0098 108.011 48.1875 108.781 48.543C109.56 48.89 110.22 49.3809 110.762 50.0156C111.312 50.6419 111.731 51.3825 112.019 52.2373C112.306 53.0837 112.45 54.002 112.45 54.9922V55.2842C112.45 56.2744 112.306 57.1927 112.019 58.0391C111.731 58.8854 111.312 59.626 110.762 60.2607C110.22 60.887 109.564 61.3779 108.794 61.7334C108.032 62.0804 107.169 62.2539 106.204 62.2539C105.239 62.2539 104.372 62.0804 103.602 61.7334C102.831 61.3779 102.171 60.887 101.621 60.2607C101.079 59.626 100.665 58.8854 100.377 58.0391C100.089 57.1927 99.9453 56.2744 99.9453 55.2842ZM102.294 54.9922V55.2842C102.294 55.9697 102.374 56.6172 102.535 57.2266C102.696 57.8275 102.937 58.3607 103.259 58.8262C103.589 59.2917 103.999 59.6598 104.49 59.9307C104.981 60.193 105.552 60.3242 106.204 60.3242C106.847 60.3242 107.41 60.193 107.893 59.9307C108.383 59.6598 108.79 59.2917 109.111 58.8262C109.433 58.3607 109.674 57.8275 109.835 57.2266C110.004 56.6172 110.089 55.9697 110.089 55.2842V54.9922C110.089 54.3151 110.004 53.6761 109.835 53.0752C109.674 52.4658 109.429 51.9284 109.099 51.4629C108.777 50.9889 108.371 50.6165 107.88 50.3457C107.397 50.0749 106.83 49.9395 106.179 49.9395C105.535 49.9395 104.968 50.0749 104.478 50.3457C103.995 50.6165 103.589 50.9889 103.259 51.4629C102.937 51.9284 102.696 52.4658 102.535 53.0752C102.374 53.6761 102.294 54.3151 102.294 54.9922ZM123.8 58.8262V48.2637H126.161V62H123.914L123.8 58.8262ZM124.244 55.9316L125.222 55.9062C125.222 56.8203 125.124 57.6667 124.93 58.4453C124.743 59.2155 124.439 59.8841 124.016 60.4512C123.592 61.0182 123.038 61.4626 122.353 61.7842C121.667 62.0973 120.833 62.2539 119.852 62.2539C119.183 62.2539 118.569 62.1566 118.011 61.9619C117.461 61.7673 116.987 61.4668 116.589 61.0605C116.191 60.6543 115.882 60.1253 115.662 59.4736C115.451 58.8219 115.345 58.0391 115.345 57.125V48.2637H117.693V57.1504C117.693 57.7682 117.761 58.2803 117.896 58.6865C118.04 59.0843 118.231 59.4017 118.468 59.6387C118.713 59.8672 118.984 60.028 119.28 60.1211C119.585 60.2142 119.898 60.2607 120.22 60.2607C121.218 60.2607 122.01 60.0703 122.594 59.6895C123.178 59.3001 123.597 58.7796 123.851 58.1279C124.113 57.4678 124.244 56.7357 124.244 55.9316ZM144.849 59.334V42.5H147.21V62H145.052L144.849 59.334ZM135.606 55.2842V55.0176C135.606 53.9681 135.733 53.016 135.987 52.1611C136.25 51.2979 136.618 50.5573 137.092 49.9395C137.574 49.3216 138.146 48.8477 138.806 48.5176C139.474 48.179 140.219 48.0098 141.04 48.0098C141.903 48.0098 142.657 48.1621 143.3 48.4668C143.951 48.763 144.502 49.1989 144.95 49.7744C145.407 50.3415 145.767 51.027 146.029 51.8311C146.292 52.6351 146.474 53.5449 146.575 54.5605V55.7285C146.482 56.7357 146.3 57.6413 146.029 58.4453C145.767 59.2493 145.407 59.9349 144.95 60.502C144.502 61.069 143.951 61.5049 143.3 61.8096C142.648 62.1058 141.886 62.2539 141.015 62.2539C140.211 62.2539 139.474 62.0804 138.806 61.7334C138.146 61.3864 137.574 60.8997 137.092 60.2734C136.618 59.6471 136.25 58.9108 135.987 58.0645C135.733 57.2096 135.606 56.2829 135.606 55.2842ZM137.968 55.0176V55.2842C137.968 55.9697 138.035 56.613 138.171 57.2139C138.315 57.8148 138.535 58.3438 138.831 58.8008C139.127 59.2578 139.504 59.6175 139.961 59.8799C140.418 60.1338 140.964 60.2607 141.599 60.2607C142.377 60.2607 143.016 60.0957 143.516 59.7656C144.023 59.4355 144.43 58.9997 144.734 58.458C145.039 57.9163 145.276 57.3281 145.445 56.6934V53.6338C145.344 53.1683 145.196 52.7197 145.001 52.2881C144.815 51.848 144.569 51.4587 144.265 51.1201C143.968 50.7731 143.6 50.498 143.16 50.2949C142.729 50.0918 142.216 49.9902 141.624 49.9902C140.981 49.9902 140.426 50.1257 139.961 50.3965C139.504 50.6589 139.127 51.0228 138.831 51.4883C138.535 51.9453 138.315 52.4785 138.171 53.0879C138.035 53.6888 137.968 54.332 137.968 55.0176ZM150.244 55.2842V54.9922C150.244 54.002 150.388 53.0837 150.676 52.2373C150.964 51.3825 151.378 50.6419 151.92 50.0156C152.462 49.3809 153.118 48.89 153.888 48.543C154.658 48.1875 155.521 48.0098 156.478 48.0098C157.442 48.0098 158.31 48.1875 159.08 48.543C159.859 48.89 160.519 49.3809 161.061 50.0156C161.611 50.6419 162.03 51.3825 162.317 52.2373C162.605 53.0837 162.749 54.002 162.749 54.9922V55.2842C162.749 56.2744 162.605 57.1927 162.317 58.0391C162.03 58.8854 161.611 59.626 161.061 60.2607C160.519 60.887 159.863 61.3779 159.093 61.7334C158.331 62.0804 157.468 62.2539 156.503 62.2539C155.538 62.2539 154.671 62.0804 153.9 61.7334C153.13 61.3779 152.47 60.887 151.92 60.2607C151.378 59.626 150.964 58.8854 150.676 58.0391C150.388 57.1927 150.244 56.2744 150.244 55.2842ZM152.593 54.9922V55.2842C152.593 55.9697 152.673 56.6172 152.834 57.2266C152.995 57.8275 153.236 58.3607 153.558 58.8262C153.888 59.2917 154.298 59.6598 154.789 59.9307C155.28 60.193 155.851 60.3242 156.503 60.3242C157.146 60.3242 157.709 60.193 158.191 59.9307C158.682 59.6598 159.089 59.2917 159.41 58.8262C159.732 58.3607 159.973 57.8275 160.134 57.2266C160.303 56.6172 160.388 55.9697 160.388 55.2842V54.9922C160.388 54.3151 160.303 53.6761 160.134 53.0752C159.973 52.4658 159.728 51.9284 159.397 51.4629C159.076 50.9889 158.67 50.6165 158.179 50.3457C157.696 50.0749 157.129 49.9395 156.478 49.9395C155.834 49.9395 155.267 50.0749 154.776 50.3457C154.294 50.6165 153.888 50.9889 153.558 51.4629C153.236 51.9284 152.995 52.4658 152.834 53.0752C152.673 53.6761 152.593 54.3151 152.593 54.9922ZM168.043 51.1963V62H165.694V48.2637H167.916L168.043 51.1963ZM167.484 54.6113L166.507 54.5732C166.515 53.6338 166.655 52.7663 166.926 51.9707C167.197 51.1667 167.577 50.4684 168.068 49.876C168.559 49.2835 169.143 48.8265 169.82 48.5049C170.506 48.1748 171.263 48.0098 172.093 48.0098C172.77 48.0098 173.379 48.1029 173.921 48.2891C174.463 48.4668 174.924 48.7546 175.305 49.1523C175.694 49.5501 175.99 50.0664 176.193 50.7012C176.396 51.3275 176.498 52.0934 176.498 52.999V62H174.137V52.9736C174.137 52.2542 174.031 51.6787 173.819 51.2471C173.608 50.807 173.299 50.4896 172.893 50.2949C172.486 50.0918 171.987 49.9902 171.395 49.9902C170.811 49.9902 170.277 50.113 169.795 50.3584C169.321 50.6038 168.91 50.9424 168.563 51.374C168.225 51.8057 167.958 52.3008 167.764 52.8594C167.577 53.4095 167.484 53.9935 167.484 54.6113ZM181.424 42.5V44.125C181.424 44.6328 181.335 45.1702 181.157 45.7373C180.988 46.2959 180.738 46.8376 180.408 47.3623C180.078 47.8786 179.68 48.3314 179.215 48.7207L177.869 47.7939C178.267 47.2354 178.567 46.6641 178.771 46.0801C178.982 45.4876 179.088 44.8486 179.088 44.1631V42.5H181.424ZM190.006 48.2637V50.0664H182.579V48.2637H190.006ZM185.093 44.9248H187.441V58.5977C187.441 59.0632 187.513 59.4144 187.657 59.6514C187.801 59.8883 187.987 60.0449 188.216 60.1211C188.444 60.1973 188.69 60.2354 188.952 60.2354C189.147 60.2354 189.35 60.2184 189.562 60.1846C189.782 60.1423 189.947 60.1084 190.057 60.083L190.069 62C189.883 62.0592 189.638 62.1143 189.333 62.165C189.037 62.2243 188.677 62.2539 188.254 62.2539C187.678 62.2539 187.149 62.1396 186.667 61.9111C186.185 61.6826 185.799 61.3018 185.512 60.7686C185.232 60.2269 185.093 59.499 185.093 58.585V44.9248ZM201.559 42.5V62H199.21V42.5H201.559ZM201 54.6113L200.022 54.5732C200.031 53.6338 200.171 52.7663 200.441 51.9707C200.712 51.1667 201.093 50.4684 201.584 49.876C202.075 49.2835 202.659 48.8265 203.336 48.5049C204.021 48.1748 204.779 48.0098 205.608 48.0098C206.285 48.0098 206.895 48.1029 207.437 48.2891C207.978 48.4668 208.439 48.7546 208.82 49.1523C209.21 49.5501 209.506 50.0664 209.709 50.7012C209.912 51.3275 210.014 52.0934 210.014 52.999V62H207.652V52.9736C207.652 52.2542 207.547 51.6787 207.335 51.2471C207.123 50.807 206.814 50.4896 206.408 50.2949C206.002 50.0918 205.503 49.9902 204.91 49.9902C204.326 49.9902 203.793 50.113 203.311 50.3584C202.837 50.6038 202.426 50.9424 202.079 51.374C201.741 51.8057 201.474 52.3008 201.279 52.8594C201.093 53.4095 201 53.9935 201 54.6113ZM221.63 59.6514V52.5801C221.63 52.0384 221.52 51.5687 221.3 51.1709C221.088 50.7646 220.767 50.4515 220.335 50.2314C219.903 50.0114 219.37 49.9014 218.735 49.9014C218.143 49.9014 217.622 50.0029 217.174 50.2061C216.734 50.4092 216.387 50.6758 216.133 51.0059C215.887 51.3359 215.765 51.6914 215.765 52.0723H213.416C213.416 51.5814 213.543 51.0947 213.797 50.6123C214.051 50.1299 214.415 49.694 214.889 49.3047C215.371 48.9069 215.947 48.5938 216.615 48.3652C217.292 48.1283 218.046 48.0098 218.875 48.0098C219.874 48.0098 220.754 48.179 221.516 48.5176C222.286 48.8561 222.887 49.3682 223.318 50.0537C223.758 50.7308 223.979 51.5814 223.979 52.6055V59.0039C223.979 59.4609 224.017 59.9476 224.093 60.4639C224.177 60.9801 224.3 61.4245 224.461 61.7969V62H222.011C221.892 61.7292 221.799 61.3695 221.731 60.9209C221.664 60.4639 221.63 60.0407 221.63 59.6514ZM222.036 53.6719L222.062 55.3223H219.688C219.019 55.3223 218.422 55.3773 217.897 55.4873C217.373 55.5889 216.933 55.7454 216.577 55.957C216.222 56.1686 215.951 56.4352 215.765 56.7568C215.578 57.07 215.485 57.4382 215.485 57.8613C215.485 58.293 215.583 58.6865 215.777 59.042C215.972 59.3975 216.264 59.681 216.653 59.8926C217.051 60.0957 217.538 60.1973 218.113 60.1973C218.833 60.1973 219.467 60.0449 220.018 59.7402C220.568 59.4355 221.004 59.0632 221.325 58.623C221.655 58.1829 221.833 57.7555 221.858 57.3408L222.861 58.4707C222.802 58.8262 222.641 59.2197 222.379 59.6514C222.117 60.083 221.765 60.4977 221.325 60.8955C220.894 61.2848 220.377 61.6107 219.776 61.873C219.184 62.127 218.515 62.2539 217.771 62.2539C216.84 62.2539 216.023 62.0719 215.32 61.708C214.626 61.3441 214.085 60.8574 213.695 60.248C213.314 59.6302 213.124 58.9404 213.124 58.1787C213.124 57.4424 213.268 56.7949 213.556 56.2363C213.843 55.6693 214.258 55.1995 214.8 54.8271C215.341 54.4463 215.993 54.1585 216.755 53.9639C217.517 53.7692 218.367 53.6719 219.307 53.6719H222.036ZM231.646 59.8799L235.404 48.2637H237.804L232.865 62H231.291L231.646 59.8799ZM228.511 48.2637L232.383 59.9434L232.649 62H231.075L226.099 48.2637H228.511ZM245.586 62.2539C244.63 62.2539 243.762 62.0931 242.983 61.7715C242.213 61.4414 241.549 60.9801 240.99 60.3877C240.44 59.7952 240.017 59.0928 239.721 58.2803C239.424 57.4678 239.276 56.5791 239.276 55.6143V55.0811C239.276 53.9639 239.441 52.9694 239.771 52.0977C240.102 51.2174 240.55 50.4727 241.117 49.8633C241.684 49.2539 242.327 48.7926 243.047 48.4795C243.766 48.1663 244.511 48.0098 245.281 48.0098C246.263 48.0098 247.109 48.179 247.82 48.5176C248.54 48.8561 249.128 49.3301 249.585 49.9395C250.042 50.5404 250.381 51.2513 250.601 52.0723C250.821 52.8848 250.931 53.7734 250.931 54.7383V55.792H240.673V53.875H248.582V53.6973C248.548 53.0879 248.421 52.4954 248.201 51.9199C247.99 51.3444 247.651 50.8704 247.186 50.498C246.72 50.1257 246.085 49.9395 245.281 49.9395C244.748 49.9395 244.257 50.0537 243.809 50.2822C243.36 50.5023 242.975 50.8324 242.653 51.2725C242.332 51.7126 242.082 52.25 241.904 52.8848C241.727 53.5195 241.638 54.2516 241.638 55.0811V55.6143C241.638 56.266 241.727 56.8796 241.904 57.4551C242.09 58.0221 242.357 58.5215 242.704 58.9531C243.06 59.3848 243.487 59.7233 243.986 59.9688C244.494 60.2142 245.07 60.3369 245.713 60.3369C246.542 60.3369 247.245 60.1676 247.82 59.8291C248.396 59.4906 248.899 59.0378 249.331 58.4707L250.753 59.6006C250.457 60.0492 250.08 60.4766 249.623 60.8828C249.166 61.2891 248.603 61.6191 247.935 61.873C247.274 62.127 246.492 62.2539 245.586 62.2539ZM268.222 59.6514V52.5801C268.222 52.0384 268.112 51.5687 267.892 51.1709C267.68 50.7646 267.358 50.4515 266.927 50.2314C266.495 50.0114 265.962 49.9014 265.327 49.9014C264.735 49.9014 264.214 50.0029 263.766 50.2061C263.326 50.4092 262.979 50.6758 262.725 51.0059C262.479 51.3359 262.356 51.6914 262.356 52.0723H260.008C260.008 51.5814 260.135 51.0947 260.389 50.6123C260.643 50.1299 261.007 49.694 261.48 49.3047C261.963 48.9069 262.538 48.5938 263.207 48.3652C263.884 48.1283 264.637 48.0098 265.467 48.0098C266.465 48.0098 267.346 48.179 268.107 48.5176C268.878 48.8561 269.479 49.3682 269.91 50.0537C270.35 50.7308 270.57 51.5814 270.57 52.6055V59.0039C270.57 59.4609 270.608 59.9476 270.685 60.4639C270.769 60.9801 270.892 61.4245 271.053 61.7969V62H268.603C268.484 61.7292 268.391 61.3695 268.323 60.9209C268.256 60.4639 268.222 60.0407 268.222 59.6514ZM268.628 53.6719L268.653 55.3223H266.279C265.611 55.3223 265.014 55.3773 264.489 55.4873C263.965 55.5889 263.524 55.7454 263.169 55.957C262.813 56.1686 262.543 56.4352 262.356 56.7568C262.17 57.07 262.077 57.4382 262.077 57.8613C262.077 58.293 262.174 58.6865 262.369 59.042C262.564 59.3975 262.856 59.681 263.245 59.8926C263.643 60.0957 264.13 60.1973 264.705 60.1973C265.424 60.1973 266.059 60.0449 266.609 59.7402C267.16 59.4355 267.595 59.0632 267.917 58.623C268.247 58.1829 268.425 57.7555 268.45 57.3408L269.453 58.4707C269.394 58.8262 269.233 59.2197 268.971 59.6514C268.708 60.083 268.357 60.4977 267.917 60.8955C267.485 61.2848 266.969 61.6107 266.368 61.873C265.776 62.127 265.107 62.2539 264.362 62.2539C263.431 62.2539 262.615 62.0719 261.912 61.708C261.218 61.3441 260.676 60.8574 260.287 60.248C259.906 59.6302 259.716 58.9404 259.716 58.1787C259.716 57.4424 259.86 56.7949 260.147 56.2363C260.435 55.6693 260.85 55.1995 261.392 54.8271C261.933 54.4463 262.585 54.1585 263.347 53.9639C264.108 53.7692 264.959 53.6719 265.898 53.6719H268.628ZM276.613 51.1963V62H274.265V48.2637H276.486L276.613 51.1963ZM276.055 54.6113L275.077 54.5732C275.086 53.6338 275.225 52.7663 275.496 51.9707C275.767 51.1667 276.148 50.4684 276.639 49.876C277.13 49.2835 277.714 48.8265 278.391 48.5049C279.076 48.1748 279.834 48.0098 280.663 48.0098C281.34 48.0098 281.95 48.1029 282.491 48.2891C283.033 48.4668 283.494 48.7546 283.875 49.1523C284.264 49.5501 284.561 50.0664 284.764 50.7012C284.967 51.3275 285.068 52.0934 285.068 52.999V62H282.707V52.9736C282.707 52.2542 282.601 51.6787 282.39 51.2471C282.178 50.807 281.869 50.4896 281.463 50.2949C281.057 50.0918 280.557 49.9902 279.965 49.9902C279.381 49.9902 278.848 50.113 278.365 50.3584C277.891 50.6038 277.481 50.9424 277.134 51.374C276.795 51.8057 276.529 52.3008 276.334 52.8594C276.148 53.4095 276.055 53.9935 276.055 54.6113ZM292.495 60.5781L296.316 48.2637H298.83L293.32 64.1201C293.193 64.4587 293.024 64.8226 292.812 65.2119C292.609 65.6097 292.347 65.9863 292.025 66.3418C291.704 66.6973 291.314 66.985 290.857 67.2051C290.409 67.4336 289.871 67.5479 289.245 67.5479C289.059 67.5479 288.822 67.5225 288.534 67.4717C288.246 67.4209 288.043 67.3786 287.925 67.3447L287.912 65.4404C287.98 65.4489 288.086 65.4574 288.229 65.4658C288.382 65.4827 288.488 65.4912 288.547 65.4912C289.08 65.4912 289.533 65.4193 289.905 65.2754C290.278 65.14 290.591 64.9072 290.845 64.5771C291.107 64.2555 291.331 63.8112 291.518 63.2441L292.495 60.5781ZM289.689 48.2637L293.257 58.9277L293.866 61.4033L292.178 62.2666L287.125 48.2637H289.689ZM313.15 48.2637V50.0664H305.724V48.2637H313.15ZM308.237 44.9248H310.586V58.5977C310.586 59.0632 310.658 59.4144 310.802 59.6514C310.946 59.8883 311.132 60.0449 311.36 60.1211C311.589 60.1973 311.834 60.2354 312.097 60.2354C312.291 60.2354 312.494 60.2184 312.706 60.1846C312.926 60.1423 313.091 60.1084 313.201 60.083L313.214 62C313.028 62.0592 312.782 62.1143 312.478 62.165C312.181 62.2243 311.822 62.2539 311.398 62.2539C310.823 62.2539 310.294 62.1396 309.812 61.9111C309.329 61.6826 308.944 61.3018 308.656 60.7686C308.377 60.2269 308.237 59.499 308.237 58.585V44.9248ZM324.005 59.6514V52.5801C324.005 52.0384 323.895 51.5687 323.675 51.1709C323.463 50.7646 323.142 50.4515 322.71 50.2314C322.278 50.0114 321.745 49.9014 321.11 49.9014C320.518 49.9014 319.997 50.0029 319.549 50.2061C319.109 50.4092 318.762 50.6758 318.508 51.0059C318.262 51.3359 318.14 51.6914 318.14 52.0723H315.791C315.791 51.5814 315.918 51.0947 316.172 50.6123C316.426 50.1299 316.79 49.694 317.264 49.3047C317.746 48.9069 318.322 48.5938 318.99 48.3652C319.667 48.1283 320.421 48.0098 321.25 48.0098C322.249 48.0098 323.129 48.179 323.891 48.5176C324.661 48.8561 325.262 49.3682 325.693 50.0537C326.133 50.7308 326.354 51.5814 326.354 52.6055V59.0039C326.354 59.4609 326.392 59.9476 326.468 60.4639C326.552 60.9801 326.675 61.4245 326.836 61.7969V62H324.386C324.267 61.7292 324.174 61.3695 324.106 60.9209C324.039 60.4639 324.005 60.0407 324.005 59.6514ZM324.411 53.6719L324.437 55.3223H322.062C321.394 55.3223 320.797 55.3773 320.272 55.4873C319.748 55.5889 319.308 55.7454 318.952 55.957C318.597 56.1686 318.326 56.4352 318.14 56.7568C317.953 57.07 317.86 57.4382 317.86 57.8613C317.86 58.293 317.958 58.6865 318.152 59.042C318.347 59.3975 318.639 59.681 319.028 59.8926C319.426 60.0957 319.913 60.1973 320.488 60.1973C321.208 60.1973 321.842 60.0449 322.393 59.7402C322.943 59.4355 323.379 59.0632 323.7 58.623C324.03 58.1829 324.208 57.7555 324.233 57.3408L325.236 58.4707C325.177 58.8262 325.016 59.2197 324.754 59.6514C324.492 60.083 324.14 60.4977 323.7 60.8955C323.269 61.2848 322.752 61.6107 322.151 61.873C321.559 62.127 320.89 62.2539 320.146 62.2539C319.215 62.2539 318.398 62.0719 317.695 61.708C317.001 61.3441 316.46 60.8574 316.07 60.248C315.689 59.6302 315.499 58.9404 315.499 58.1787C315.499 57.4424 315.643 56.7949 315.931 56.2363C316.218 55.6693 316.633 55.1995 317.175 54.8271C317.716 54.4463 318.368 54.1585 319.13 53.9639C319.892 53.7692 320.742 53.6719 321.682 53.6719H324.411ZM338.046 58.3564C338.046 58.0179 337.97 57.7048 337.817 57.417C337.674 57.1208 337.373 56.8542 336.916 56.6172C336.467 56.3717 335.79 56.1602 334.885 55.9824C334.123 55.8216 333.433 55.6312 332.815 55.4111C332.206 55.1911 331.686 54.9245 331.254 54.6113C330.831 54.2982 330.505 53.93 330.276 53.5068C330.048 53.0837 329.934 52.5885 329.934 52.0215C329.934 51.4798 330.052 50.9678 330.289 50.4854C330.535 50.0029 330.877 49.5755 331.317 49.2031C331.766 48.8307 332.303 48.5387 332.93 48.3271C333.556 48.1156 334.254 48.0098 335.024 48.0098C336.125 48.0098 337.064 48.2044 337.843 48.5938C338.621 48.9831 339.218 49.5036 339.633 50.1553C340.048 50.7985 340.255 51.5137 340.255 52.3008H337.906C337.906 51.9199 337.792 51.5518 337.563 51.1963C337.343 50.8324 337.018 50.5319 336.586 50.2949C336.163 50.0579 335.642 49.9395 335.024 49.9395C334.373 49.9395 333.844 50.041 333.438 50.2441C333.04 50.4388 332.748 50.6885 332.562 50.9932C332.384 51.2979 332.295 51.6195 332.295 51.958C332.295 52.2119 332.337 52.4404 332.422 52.6436C332.515 52.8382 332.676 53.0202 332.904 53.1895C333.133 53.3503 333.454 53.5026 333.869 53.6465C334.284 53.7904 334.813 53.9342 335.456 54.0781C336.582 54.332 337.508 54.6367 338.236 54.9922C338.964 55.3477 339.506 55.7835 339.861 56.2998C340.217 56.8161 340.395 57.4424 340.395 58.1787C340.395 58.7796 340.268 59.3298 340.014 59.8291C339.768 60.3285 339.409 60.7601 338.935 61.124C338.469 61.4795 337.91 61.7588 337.259 61.9619C336.616 62.1566 335.892 62.2539 335.088 62.2539C333.878 62.2539 332.854 62.0381 332.016 61.6064C331.178 61.1748 330.543 60.6162 330.111 59.9307C329.68 59.2451 329.464 58.5215 329.464 57.7598H331.825C331.859 58.403 332.045 58.915 332.384 59.2959C332.722 59.6683 333.137 59.9349 333.628 60.0957C334.119 60.248 334.605 60.3242 335.088 60.3242C335.731 60.3242 336.269 60.2396 336.7 60.0703C337.14 59.901 337.475 59.6683 337.703 59.3721C337.932 59.0758 338.046 58.7373 338.046 58.3564ZM345.841 42.5V62H343.479V42.5H345.841ZM354.232 48.2637L348.24 54.6748L344.889 58.1533L344.698 55.6523L347.098 52.7832L351.363 48.2637H354.232ZM352.087 62L347.187 55.4492L348.405 53.3545L354.854 62H352.087ZM366.966 60.5781L370.787 48.2637H373.301L367.791 64.1201C367.664 64.4587 367.495 64.8226 367.283 65.2119C367.08 65.6097 366.818 65.9863 366.496 66.3418C366.174 66.6973 365.785 66.985 365.328 67.2051C364.88 67.4336 364.342 67.5479 363.716 67.5479C363.53 67.5479 363.293 67.5225 363.005 67.4717C362.717 67.4209 362.514 67.3786 362.396 67.3447L362.383 65.4404C362.451 65.4489 362.556 65.4574 362.7 65.4658C362.853 65.4827 362.958 65.4912 363.018 65.4912C363.551 65.4912 364.004 65.4193 364.376 65.2754C364.748 65.14 365.062 64.9072 365.315 64.5771C365.578 64.2555 365.802 63.8112 365.988 63.2441L366.966 60.5781ZM364.16 48.2637L367.728 58.9277L368.337 61.4033L366.648 62.2666L361.596 48.2637H364.16ZM380.943 62.2539C379.987 62.2539 379.119 62.0931 378.341 61.7715C377.571 61.4414 376.906 60.9801 376.348 60.3877C375.798 59.7952 375.374 59.0928 375.078 58.2803C374.782 57.4678 374.634 56.5791 374.634 55.6143V55.0811C374.634 53.9639 374.799 52.9694 375.129 52.0977C375.459 51.2174 375.908 50.4727 376.475 49.8633C377.042 49.2539 377.685 48.7926 378.404 48.4795C379.124 48.1663 379.868 48.0098 380.639 48.0098C381.62 48.0098 382.467 48.179 383.178 48.5176C383.897 48.8561 384.485 49.3301 384.942 49.9395C385.399 50.5404 385.738 51.2513 385.958 52.0723C386.178 52.8848 386.288 53.7734 386.288 54.7383V55.792H376.03V53.875H383.939V53.6973C383.906 53.0879 383.779 52.4954 383.559 51.9199C383.347 51.3444 383.008 50.8704 382.543 50.498C382.077 50.1257 381.443 49.9395 380.639 49.9395C380.105 49.9395 379.615 50.0537 379.166 50.2822C378.717 50.5023 378.332 50.8324 378.011 51.2725C377.689 51.7126 377.439 52.25 377.262 52.8848C377.084 53.5195 376.995 54.2516 376.995 55.0811V55.6143C376.995 56.266 377.084 56.8796 377.262 57.4551C377.448 58.0221 377.715 58.5215 378.062 58.9531C378.417 59.3848 378.844 59.7233 379.344 59.9688C379.852 60.2142 380.427 60.3369 381.07 60.3369C381.9 60.3369 382.602 60.1676 383.178 59.8291C383.753 59.4906 384.257 59.0378 384.688 58.4707L386.11 59.6006C385.814 60.0492 385.438 60.4766 384.98 60.8828C384.523 61.2891 383.961 61.6191 383.292 61.873C382.632 62.127 381.849 62.2539 380.943 62.2539ZM394.781 48.2637V50.0664H387.354V48.2637H394.781ZM389.868 44.9248H392.217V58.5977C392.217 59.0632 392.289 59.4144 392.433 59.6514C392.576 59.8883 392.763 60.0449 392.991 60.1211C393.22 60.1973 393.465 60.2354 393.728 60.2354C393.922 60.2354 394.125 60.2184 394.337 60.1846C394.557 60.1423 394.722 60.1084 394.832 60.083L394.845 62C394.659 62.0592 394.413 62.1143 394.108 62.165C393.812 62.2243 393.452 62.2539 393.029 62.2539C392.454 62.2539 391.925 62.1396 391.442 61.9111C390.96 61.6826 390.575 61.3018 390.287 60.7686C390.008 60.2269 389.868 59.499 389.868 58.585V44.9248ZM397.574 60.7559C397.574 60.3581 397.697 60.0238 397.942 59.7529C398.196 59.4736 398.56 59.334 399.034 59.334C399.508 59.334 399.868 59.4736 400.113 59.7529C400.367 60.0238 400.494 60.3581 400.494 60.7559C400.494 61.1452 400.367 61.4753 400.113 61.7461C399.868 62.0169 399.508 62.1523 399.034 62.1523C398.56 62.1523 398.196 62.0169 397.942 61.7461C397.697 61.4753 397.574 61.1452 397.574 60.7559ZM404.43 60.7559C404.43 60.3581 404.552 60.0238 404.798 59.7529C405.052 59.4736 405.416 59.334 405.89 59.334C406.364 59.334 406.723 59.4736 406.969 59.7529C407.223 60.0238 407.35 60.3581 407.35 60.7559C407.35 61.1452 407.223 61.4753 406.969 61.7461C406.723 62.0169 406.364 62.1523 405.89 62.1523C405.416 62.1523 405.052 62.0169 404.798 61.7461C404.552 61.4753 404.43 61.1452 404.43 60.7559ZM411.285 60.7559C411.285 60.3581 411.408 60.0238 411.653 59.7529C411.907 59.4736 412.271 59.334 412.745 59.334C413.219 59.334 413.579 59.4736 413.824 59.7529C414.078 60.0238 414.205 60.3581 414.205 60.7559C414.205 61.1452 414.078 61.4753 413.824 61.7461C413.579 62.0169 413.219 62.1523 412.745 62.1523C412.271 62.1523 411.907 62.0169 411.653 61.7461C411.408 61.4753 411.285 61.1452 411.285 60.7559Z" fill="#302727"/>
<path d="M133.957 100.938V118H131.73V100.938H133.957ZM139.441 100.938V102.789H126.258V100.938H139.441ZM142.922 107.312V118H140.754V105.32H142.863L142.922 107.312ZM146.883 105.25L146.871 107.266C146.691 107.227 146.52 107.203 146.355 107.195C146.199 107.18 146.02 107.172 145.816 107.172C145.316 107.172 144.875 107.25 144.492 107.406C144.109 107.562 143.785 107.781 143.52 108.062C143.254 108.344 143.043 108.68 142.887 109.07C142.738 109.453 142.641 109.875 142.594 110.336L141.984 110.688C141.984 109.922 142.059 109.203 142.207 108.531C142.363 107.859 142.602 107.266 142.922 106.75C143.242 106.227 143.648 105.82 144.141 105.531C144.641 105.234 145.234 105.086 145.922 105.086C146.078 105.086 146.258 105.105 146.461 105.145C146.664 105.176 146.805 105.211 146.883 105.25ZM152.66 116.688L156.188 105.32H158.508L153.422 119.957C153.305 120.27 153.148 120.605 152.953 120.965C152.766 121.332 152.523 121.68 152.227 122.008C151.93 122.336 151.57 122.602 151.148 122.805C150.734 123.016 150.238 123.121 149.66 123.121C149.488 123.121 149.27 123.098 149.004 123.051C148.738 123.004 148.551 122.965 148.441 122.934L148.43 121.176C148.492 121.184 148.59 121.191 148.723 121.199C148.863 121.215 148.961 121.223 149.016 121.223C149.508 121.223 149.926 121.156 150.27 121.023C150.613 120.898 150.902 120.684 151.137 120.379C151.379 120.082 151.586 119.672 151.758 119.148L152.66 116.688ZM150.07 105.32L153.363 115.164L153.926 117.449L152.367 118.246L147.703 105.32H150.07ZM171.727 105.32V106.984H164.871V105.32H171.727ZM167.191 102.238H169.359V114.859C169.359 115.289 169.426 115.613 169.559 115.832C169.691 116.051 169.863 116.195 170.074 116.266C170.285 116.336 170.512 116.371 170.754 116.371C170.934 116.371 171.121 116.355 171.316 116.324C171.52 116.285 171.672 116.254 171.773 116.23L171.785 118C171.613 118.055 171.387 118.105 171.105 118.152C170.832 118.207 170.5 118.234 170.109 118.234C169.578 118.234 169.09 118.129 168.645 117.918C168.199 117.707 167.844 117.355 167.578 116.863C167.32 116.363 167.191 115.691 167.191 114.848V102.238ZM173.461 111.801V111.531C173.461 110.617 173.594 109.77 173.859 108.988C174.125 108.199 174.508 107.516 175.008 106.938C175.508 106.352 176.113 105.898 176.824 105.578C177.535 105.25 178.332 105.086 179.215 105.086C180.105 105.086 180.906 105.25 181.617 105.578C182.336 105.898 182.945 106.352 183.445 106.938C183.953 107.516 184.34 108.199 184.605 108.988C184.871 109.77 185.004 110.617 185.004 111.531V111.801C185.004 112.715 184.871 113.562 184.605 114.344C184.34 115.125 183.953 115.809 183.445 116.395C182.945 116.973 182.34 117.426 181.629 117.754C180.926 118.074 180.129 118.234 179.238 118.234C178.348 118.234 177.547 118.074 176.836 117.754C176.125 117.426 175.516 116.973 175.008 116.395C174.508 115.809 174.125 115.125 173.859 114.344C173.594 113.562 173.461 112.715 173.461 111.801ZM175.629 111.531V111.801C175.629 112.434 175.703 113.031 175.852 113.594C176 114.148 176.223 114.641 176.52 115.07C176.824 115.5 177.203 115.84 177.656 116.09C178.109 116.332 178.637 116.453 179.238 116.453C179.832 116.453 180.352 116.332 180.797 116.09C181.25 115.84 181.625 115.5 181.922 115.07C182.219 114.641 182.441 114.148 182.59 113.594C182.746 113.031 182.824 112.434 182.824 111.801V111.531C182.824 110.906 182.746 110.316 182.59 109.762C182.441 109.199 182.215 108.703 181.91 108.273C181.613 107.836 181.238 107.492 180.785 107.242C180.34 106.992 179.816 106.867 179.215 106.867C178.621 106.867 178.098 106.992 177.645 107.242C177.199 107.492 176.824 107.836 176.52 108.273C176.223 108.703 176 109.199 175.852 109.762C175.703 110.316 175.629 110.906 175.629 111.531ZM198.75 116.453C199.266 116.453 199.742 116.348 200.18 116.137C200.617 115.926 200.977 115.637 201.258 115.27C201.539 114.895 201.699 114.469 201.738 113.992H203.801C203.762 114.742 203.508 115.441 203.039 116.09C202.578 116.73 201.973 117.25 201.223 117.648C200.473 118.039 199.648 118.234 198.75 118.234C197.797 118.234 196.965 118.066 196.254 117.73C195.551 117.395 194.965 116.934 194.496 116.348C194.035 115.762 193.688 115.09 193.453 114.332C193.227 113.566 193.113 112.758 193.113 111.906V111.414C193.113 110.562 193.227 109.758 193.453 109C193.688 108.234 194.035 107.559 194.496 106.973C194.965 106.387 195.551 105.926 196.254 105.59C196.965 105.254 197.797 105.086 198.75 105.086C199.742 105.086 200.609 105.289 201.352 105.695C202.094 106.094 202.676 106.641 203.098 107.336C203.527 108.023 203.762 108.805 203.801 109.68H201.738C201.699 109.156 201.551 108.684 201.293 108.262C201.043 107.84 200.699 107.504 200.262 107.254C199.832 106.996 199.328 106.867 198.75 106.867C198.086 106.867 197.527 107 197.074 107.266C196.629 107.523 196.273 107.875 196.008 108.32C195.75 108.758 195.562 109.246 195.445 109.785C195.336 110.316 195.281 110.859 195.281 111.414V111.906C195.281 112.461 195.336 113.008 195.445 113.547C195.555 114.086 195.738 114.574 195.996 115.012C196.262 115.449 196.617 115.801 197.062 116.066C197.516 116.324 198.078 116.453 198.75 116.453ZM208.406 107.312V118H206.238V105.32H208.348L208.406 107.312ZM212.367 105.25L212.355 107.266C212.176 107.227 212.004 107.203 211.84 107.195C211.684 107.18 211.504 107.172 211.301 107.172C210.801 107.172 210.359 107.25 209.977 107.406C209.594 107.562 209.27 107.781 209.004 108.062C208.738 108.344 208.527 108.68 208.371 109.07C208.223 109.453 208.125 109.875 208.078 110.336L207.469 110.688C207.469 109.922 207.543 109.203 207.691 108.531C207.848 107.859 208.086 107.266 208.406 106.75C208.727 106.227 209.133 105.82 209.625 105.531C210.125 105.234 210.719 105.086 211.406 105.086C211.562 105.086 211.742 105.105 211.945 105.145C212.148 105.176 212.289 105.211 212.367 105.25ZM219.398 118.234C218.516 118.234 217.715 118.086 216.996 117.789C216.285 117.484 215.672 117.059 215.156 116.512C214.648 115.965 214.258 115.316 213.984 114.566C213.711 113.816 213.574 112.996 213.574 112.105V111.613C213.574 110.582 213.727 109.664 214.031 108.859C214.336 108.047 214.75 107.359 215.273 106.797C215.797 106.234 216.391 105.809 217.055 105.52C217.719 105.23 218.406 105.086 219.117 105.086C220.023 105.086 220.805 105.242 221.461 105.555C222.125 105.867 222.668 106.305 223.09 106.867C223.512 107.422 223.824 108.078 224.027 108.836C224.23 109.586 224.332 110.406 224.332 111.297V112.27H214.863V110.5H222.164V110.336C222.133 109.773 222.016 109.227 221.812 108.695C221.617 108.164 221.305 107.727 220.875 107.383C220.445 107.039 219.859 106.867 219.117 106.867C218.625 106.867 218.172 106.973 217.758 107.184C217.344 107.387 216.988 107.691 216.691 108.098C216.395 108.504 216.164 109 216 109.586C215.836 110.172 215.754 110.848 215.754 111.613V112.105C215.754 112.707 215.836 113.273 216 113.805C216.172 114.328 216.418 114.789 216.738 115.188C217.066 115.586 217.461 115.898 217.922 116.125C218.391 116.352 218.922 116.465 219.516 116.465C220.281 116.465 220.93 116.309 221.461 115.996C221.992 115.684 222.457 115.266 222.855 114.742L224.168 115.785C223.895 116.199 223.547 116.594 223.125 116.969C222.703 117.344 222.184 117.648 221.566 117.883C220.957 118.117 220.234 118.234 219.398 118.234ZM234.34 115.832V109.305C234.34 108.805 234.238 108.371 234.035 108.004C233.84 107.629 233.543 107.34 233.145 107.137C232.746 106.934 232.254 106.832 231.668 106.832C231.121 106.832 230.641 106.926 230.227 107.113C229.82 107.301 229.5 107.547 229.266 107.852C229.039 108.156 228.926 108.484 228.926 108.836H226.758C226.758 108.383 226.875 107.934 227.109 107.488C227.344 107.043 227.68 106.641 228.117 106.281C228.562 105.914 229.094 105.625 229.711 105.414C230.336 105.195 231.031 105.086 231.797 105.086C232.719 105.086 233.531 105.242 234.234 105.555C234.945 105.867 235.5 106.34 235.898 106.973C236.305 107.598 236.508 108.383 236.508 109.328V115.234C236.508 115.656 236.543 116.105 236.613 116.582C236.691 117.059 236.805 117.469 236.953 117.812V118H234.691C234.582 117.75 234.496 117.418 234.434 117.004C234.371 116.582 234.34 116.191 234.34 115.832ZM234.715 110.312L234.738 111.836H232.547C231.93 111.836 231.379 111.887 230.895 111.988C230.41 112.082 230.004 112.227 229.676 112.422C229.348 112.617 229.098 112.863 228.926 113.16C228.754 113.449 228.668 113.789 228.668 114.18C228.668 114.578 228.758 114.941 228.938 115.27C229.117 115.598 229.387 115.859 229.746 116.055C230.113 116.242 230.562 116.336 231.094 116.336C231.758 116.336 232.344 116.195 232.852 115.914C233.359 115.633 233.762 115.289 234.059 114.883C234.363 114.477 234.527 114.082 234.551 113.699L235.477 114.742C235.422 115.07 235.273 115.434 235.031 115.832C234.789 116.23 234.465 116.613 234.059 116.98C233.66 117.34 233.184 117.641 232.629 117.883C232.082 118.117 231.465 118.234 230.777 118.234C229.918 118.234 229.164 118.066 228.516 117.73C227.875 117.395 227.375 116.945 227.016 116.383C226.664 115.812 226.488 115.176 226.488 114.473C226.488 113.793 226.621 113.195 226.887 112.68C227.152 112.156 227.535 111.723 228.035 111.379C228.535 111.027 229.137 110.762 229.84 110.582C230.543 110.402 231.328 110.312 232.195 110.312H234.715ZM245.227 105.32V106.984H238.371V105.32H245.227ZM240.691 102.238H242.859V114.859C242.859 115.289 242.926 115.613 243.059 115.832C243.191 116.051 243.363 116.195 243.574 116.266C243.785 116.336 244.012 116.371 244.254 116.371C244.434 116.371 244.621 116.355 244.816 116.324C245.02 116.285 245.172 116.254 245.273 116.23L245.285 118C245.113 118.055 244.887 118.105 244.605 118.152C244.332 118.207 244 118.234 243.609 118.234C243.078 118.234 242.59 118.129 242.145 117.918C241.699 117.707 241.344 117.355 241.078 116.863C240.82 116.363 240.691 115.691 240.691 114.848V102.238ZM253.031 118.234C252.148 118.234 251.348 118.086 250.629 117.789C249.918 117.484 249.305 117.059 248.789 116.512C248.281 115.965 247.891 115.316 247.617 114.566C247.344 113.816 247.207 112.996 247.207 112.105V111.613C247.207 110.582 247.359 109.664 247.664 108.859C247.969 108.047 248.383 107.359 248.906 106.797C249.43 106.234 250.023 105.809 250.688 105.52C251.352 105.23 252.039 105.086 252.75 105.086C253.656 105.086 254.438 105.242 255.094 105.555C255.758 105.867 256.301 106.305 256.723 106.867C257.145 107.422 257.457 108.078 257.66 108.836C257.863 109.586 257.965 110.406 257.965 111.297V112.27H248.496V110.5H255.797V110.336C255.766 109.773 255.648 109.227 255.445 108.695C255.25 108.164 254.938 107.727 254.508 107.383C254.078 107.039 253.492 106.867 252.75 106.867C252.258 106.867 251.805 106.973 251.391 107.184C250.977 107.387 250.621 107.691 250.324 108.098C250.027 108.504 249.797 109 249.633 109.586C249.469 110.172 249.387 110.848 249.387 111.613V112.105C249.387 112.707 249.469 113.273 249.633 113.805C249.805 114.328 250.051 114.789 250.371 115.188C250.699 115.586 251.094 115.898 251.555 116.125C252.023 116.352 252.555 116.465 253.148 116.465C253.914 116.465 254.562 116.309 255.094 115.996C255.625 115.684 256.09 115.266 256.488 114.742L257.801 115.785C257.527 116.199 257.18 116.594 256.758 116.969C256.336 117.344 255.816 117.648 255.199 117.883C254.59 118.117 253.867 118.234 253.031 118.234ZM273.926 115.832V109.305C273.926 108.805 273.824 108.371 273.621 108.004C273.426 107.629 273.129 107.34 272.73 107.137C272.332 106.934 271.84 106.832 271.254 106.832C270.707 106.832 270.227 106.926 269.812 107.113C269.406 107.301 269.086 107.547 268.852 107.852C268.625 108.156 268.512 108.484 268.512 108.836H266.344C266.344 108.383 266.461 107.934 266.695 107.488C266.93 107.043 267.266 106.641 267.703 106.281C268.148 105.914 268.68 105.625 269.297 105.414C269.922 105.195 270.617 105.086 271.383 105.086C272.305 105.086 273.117 105.242 273.82 105.555C274.531 105.867 275.086 106.34 275.484 106.973C275.891 107.598 276.094 108.383 276.094 109.328V115.234C276.094 115.656 276.129 116.105 276.199 116.582C276.277 117.059 276.391 117.469 276.539 117.812V118H274.277C274.168 117.75 274.082 117.418 274.02 117.004C273.957 116.582 273.926 116.191 273.926 115.832ZM274.301 110.312L274.324 111.836H272.133C271.516 111.836 270.965 111.887 270.48 111.988C269.996 112.082 269.59 112.227 269.262 112.422C268.934 112.617 268.684 112.863 268.512 113.16C268.34 113.449 268.254 113.789 268.254 114.18C268.254 114.578 268.344 114.941 268.523 115.27C268.703 115.598 268.973 115.859 269.332 116.055C269.699 116.242 270.148 116.336 270.68 116.336C271.344 116.336 271.93 116.195 272.438 115.914C272.945 115.633 273.348 115.289 273.645 114.883C273.949 114.477 274.113 114.082 274.137 113.699L275.062 114.742C275.008 115.07 274.859 115.434 274.617 115.832C274.375 116.23 274.051 116.613 273.645 116.98C273.246 117.34 272.77 117.641 272.215 117.883C271.668 118.117 271.051 118.234 270.363 118.234C269.504 118.234 268.75 118.066 268.102 117.73C267.461 117.395 266.961 116.945 266.602 116.383C266.25 115.812 266.074 115.176 266.074 114.473C266.074 113.793 266.207 113.195 266.473 112.68C266.738 112.156 267.121 111.723 267.621 111.379C268.121 111.027 268.723 110.762 269.426 110.582C270.129 110.402 270.914 110.312 271.781 110.312H274.301ZM287.625 108.027V118H285.457V105.32H287.508L287.625 108.027ZM287.109 111.18L286.207 111.145C286.215 110.277 286.344 109.477 286.594 108.742C286.844 108 287.195 107.355 287.648 106.809C288.102 106.262 288.641 105.84 289.266 105.543C289.898 105.238 290.598 105.086 291.363 105.086C291.988 105.086 292.551 105.172 293.051 105.344C293.551 105.508 293.977 105.773 294.328 106.141C294.688 106.508 294.961 106.984 295.148 107.57C295.336 108.148 295.43 108.855 295.43 109.691V118H293.25V109.668C293.25 109.004 293.152 108.473 292.957 108.074C292.762 107.668 292.477 107.375 292.102 107.195C291.727 107.008 291.266 106.914 290.719 106.914C290.18 106.914 289.688 107.027 289.242 107.254C288.805 107.48 288.426 107.793 288.105 108.191C287.793 108.59 287.547 109.047 287.367 109.562C287.195 110.07 287.109 110.609 287.109 111.18ZM303.984 118.234C303.102 118.234 302.301 118.086 301.582 117.789C300.871 117.484 300.258 117.059 299.742 116.512C299.234 115.965 298.844 115.316 298.57 114.566C298.297 113.816 298.16 112.996 298.16 112.105V111.613C298.16 110.582 298.312 109.664 298.617 108.859C298.922 108.047 299.336 107.359 299.859 106.797C300.383 106.234 300.977 105.809 301.641 105.52C302.305 105.23 302.992 105.086 303.703 105.086C304.609 105.086 305.391 105.242 306.047 105.555C306.711 105.867 307.254 106.305 307.676 106.867C308.098 107.422 308.41 108.078 308.613 108.836C308.816 109.586 308.918 110.406 308.918 111.297V112.27H299.449V110.5H306.75V110.336C306.719 109.773 306.602 109.227 306.398 108.695C306.203 108.164 305.891 107.727 305.461 107.383C305.031 107.039 304.445 106.867 303.703 106.867C303.211 106.867 302.758 106.973 302.344 107.184C301.93 107.387 301.574 107.691 301.277 108.098C300.98 108.504 300.75 109 300.586 109.586C300.422 110.172 300.34 110.848 300.34 111.613V112.105C300.34 112.707 300.422 113.273 300.586 113.805C300.758 114.328 301.004 114.789 301.324 115.188C301.652 115.586 302.047 115.898 302.508 116.125C302.977 116.352 303.508 116.465 304.102 116.465C304.867 116.465 305.516 116.309 306.047 115.996C306.578 115.684 307.043 115.266 307.441 114.742L308.754 115.785C308.48 116.199 308.133 116.594 307.711 116.969C307.289 117.344 306.77 117.648 306.152 117.883C305.543 118.117 304.82 118.234 303.984 118.234ZM314.66 115.75L317.918 105.32H319.348L319.066 107.395L315.75 118H314.355L314.66 115.75ZM312.469 105.32L315.246 115.867L315.445 118H313.98L310.301 105.32H312.469ZM322.465 115.785L325.113 105.32H327.27L323.59 118H322.137L322.465 115.785ZM319.664 105.32L322.852 115.574L323.215 118H321.832L318.422 107.371L318.141 105.32H319.664ZM340.758 105.32V106.984H333.902V105.32H340.758ZM336.223 102.238H338.391V114.859C338.391 115.289 338.457 115.613 338.59 115.832C338.723 116.051 338.895 116.195 339.105 116.266C339.316 116.336 339.543 116.371 339.785 116.371C339.965 116.371 340.152 116.355 340.348 116.324C340.551 116.285 340.703 116.254 340.805 116.23L340.816 118C340.645 118.055 340.418 118.105 340.137 118.152C339.863 118.207 339.531 118.234 339.141 118.234C338.609 118.234 338.121 118.129 337.676 117.918C337.23 117.707 336.875 117.355 336.609 116.863C336.352 116.363 336.223 115.691 336.223 114.848V102.238ZM350.777 115.832V109.305C350.777 108.805 350.676 108.371 350.473 108.004C350.277 107.629 349.98 107.34 349.582 107.137C349.184 106.934 348.691 106.832 348.105 106.832C347.559 106.832 347.078 106.926 346.664 107.113C346.258 107.301 345.938 107.547 345.703 107.852C345.477 108.156 345.363 108.484 345.363 108.836H343.195C343.195 108.383 343.312 107.934 343.547 107.488C343.781 107.043 344.117 106.641 344.555 106.281C345 105.914 345.531 105.625 346.148 105.414C346.773 105.195 347.469 105.086 348.234 105.086C349.156 105.086 349.969 105.242 350.672 105.555C351.383 105.867 351.938 106.34 352.336 106.973C352.742 107.598 352.945 108.383 352.945 109.328V115.234C352.945 115.656 352.98 116.105 353.051 116.582C353.129 117.059 353.242 117.469 353.391 117.812V118H351.129C351.02 117.75 350.934 117.418 350.871 117.004C350.809 116.582 350.777 116.191 350.777 115.832ZM351.152 110.312L351.176 111.836H348.984C348.367 111.836 347.816 111.887 347.332 111.988C346.848 112.082 346.441 112.227 346.113 112.422C345.785 112.617 345.535 112.863 345.363 113.16C345.191 113.449 345.105 113.789 345.105 114.18C345.105 114.578 345.195 114.941 345.375 115.27C345.555 115.598 345.824 115.859 346.184 116.055C346.551 116.242 347 116.336 347.531 116.336C348.195 116.336 348.781 116.195 349.289 115.914C349.797 115.633 350.199 115.289 350.496 114.883C350.801 114.477 350.965 114.082 350.988 113.699L351.914 114.742C351.859 115.07 351.711 115.434 351.469 115.832C351.227 116.23 350.902 116.613 350.496 116.98C350.098 117.34 349.621 117.641 349.066 117.883C348.52 118.117 347.902 118.234 347.215 118.234C346.355 118.234 345.602 118.066 344.953 117.73C344.312 117.395 343.812 116.945 343.453 116.383C343.102 115.812 342.926 115.176 342.926 114.473C342.926 113.793 343.059 113.195 343.324 112.68C343.59 112.156 343.973 111.723 344.473 111.379C344.973 111.027 345.574 110.762 346.277 110.582C346.98 110.402 347.766 110.312 348.633 110.312H351.152ZM363.738 114.637C363.738 114.324 363.668 114.035 363.527 113.77C363.395 113.496 363.117 113.25 362.695 113.031C362.281 112.805 361.656 112.609 360.82 112.445C360.117 112.297 359.48 112.121 358.91 111.918C358.348 111.715 357.867 111.469 357.469 111.18C357.078 110.891 356.777 110.551 356.566 110.16C356.355 109.77 356.25 109.312 356.25 108.789C356.25 108.289 356.359 107.816 356.578 107.371C356.805 106.926 357.121 106.531 357.527 106.188C357.941 105.844 358.438 105.574 359.016 105.379C359.594 105.184 360.238 105.086 360.949 105.086C361.965 105.086 362.832 105.266 363.551 105.625C364.27 105.984 364.82 106.465 365.203 107.066C365.586 107.66 365.777 108.32 365.777 109.047H363.609C363.609 108.695 363.504 108.355 363.293 108.027C363.09 107.691 362.789 107.414 362.391 107.195C362 106.977 361.52 106.867 360.949 106.867C360.348 106.867 359.859 106.961 359.484 107.148C359.117 107.328 358.848 107.559 358.676 107.84C358.512 108.121 358.43 108.418 358.43 108.73C358.43 108.965 358.469 109.176 358.547 109.363C358.633 109.543 358.781 109.711 358.992 109.867C359.203 110.016 359.5 110.156 359.883 110.289C360.266 110.422 360.754 110.555 361.348 110.688C362.387 110.922 363.242 111.203 363.914 111.531C364.586 111.859 365.086 112.262 365.414 112.738C365.742 113.215 365.906 113.793 365.906 114.473C365.906 115.027 365.789 115.535 365.555 115.996C365.328 116.457 364.996 116.855 364.559 117.191C364.129 117.52 363.613 117.777 363.012 117.965C362.418 118.145 361.75 118.234 361.008 118.234C359.891 118.234 358.945 118.035 358.172 117.637C357.398 117.238 356.812 116.723 356.414 116.09C356.016 115.457 355.816 114.789 355.816 114.086H357.996C358.027 114.68 358.199 115.152 358.512 115.504C358.824 115.848 359.207 116.094 359.66 116.242C360.113 116.383 360.562 116.453 361.008 116.453C361.602 116.453 362.098 116.375 362.496 116.219C362.902 116.062 363.211 115.848 363.422 115.574C363.633 115.301 363.738 114.988 363.738 114.637ZM370.934 100V118H368.754V100H370.934ZM378.68 105.32L373.148 111.238L370.055 114.449L369.879 112.141L372.094 109.492L376.031 105.32H378.68ZM376.699 118L372.176 111.953L373.301 110.02L379.254 118H376.699Z" fill="#0D6EFD"/>
</g>
<path id="Start here" d="M158.305 177.688C158.305 177.289 158.258 176.938 158.164 176.633C158.07 176.32 157.906 176.039 157.672 175.789C157.438 175.539 157.109 175.301 156.688 175.074C156.266 174.848 155.73 174.617 155.082 174.383C154.379 174.133 153.742 173.855 153.172 173.551C152.602 173.238 152.113 172.883 151.707 172.484C151.309 172.086 151 171.629 150.781 171.113C150.562 170.598 150.453 170.008 150.453 169.344C150.453 168.68 150.566 168.066 150.793 167.504C151.027 166.941 151.355 166.453 151.777 166.039C152.207 165.617 152.723 165.289 153.324 165.055C153.926 164.82 154.598 164.703 155.34 164.703C156.449 164.703 157.383 164.949 158.141 165.441C158.906 165.926 159.484 166.562 159.875 167.352C160.266 168.133 160.461 168.969 160.461 169.859H158.305C158.305 169.219 158.199 168.652 157.988 168.16C157.785 167.66 157.465 167.27 157.027 166.988C156.598 166.699 156.035 166.555 155.34 166.555C154.715 166.555 154.199 166.676 153.793 166.918C153.395 167.16 153.098 167.488 152.902 167.902C152.715 168.316 152.621 168.789 152.621 169.32C152.621 169.68 152.684 170.008 152.809 170.305C152.934 170.594 153.125 170.863 153.383 171.113C153.648 171.363 153.977 171.594 154.367 171.805C154.766 172.016 155.234 172.219 155.773 172.414C156.609 172.688 157.324 172.992 157.918 173.328C158.512 173.664 158.996 174.043 159.371 174.465C159.746 174.879 160.02 175.352 160.191 175.883C160.371 176.406 160.461 177 160.461 177.664C160.461 178.359 160.344 178.988 160.109 179.551C159.883 180.113 159.551 180.594 159.113 180.992C158.676 181.391 158.148 181.699 157.531 181.918C156.914 182.129 156.219 182.234 155.445 182.234C154.773 182.234 154.113 182.125 153.465 181.906C152.824 181.688 152.242 181.359 151.719 180.922C151.195 180.484 150.777 179.945 150.465 179.305C150.152 178.656 149.996 177.906 149.996 177.055H152.152C152.152 177.641 152.238 178.145 152.41 178.566C152.582 178.98 152.82 179.324 153.125 179.598C153.43 179.871 153.777 180.074 154.168 180.207C154.566 180.332 154.992 180.395 155.445 180.395C156.07 180.395 156.594 180.285 157.016 180.066C157.445 179.848 157.766 179.535 157.977 179.129C158.195 178.723 158.305 178.242 158.305 177.688ZM167.633 169.32V170.984H161.715V169.32H167.633ZM163.648 166.238H165.723V178.859C165.723 179.289 165.773 179.613 165.875 179.832C165.984 180.051 166.121 180.195 166.285 180.266C166.449 180.336 166.625 180.371 166.812 180.371C166.953 180.371 167.109 180.355 167.281 180.324C167.453 180.285 167.57 180.254 167.633 180.23L167.621 182C167.48 182.055 167.293 182.105 167.059 182.152C166.824 182.207 166.527 182.234 166.168 182.234C165.723 182.234 165.309 182.129 164.926 181.918C164.543 181.707 164.234 181.355 164 180.863C163.766 180.363 163.648 179.691 163.648 178.848V166.238ZM176.316 179.832V172.953C176.316 172.453 176.238 172.051 176.082 171.746C175.934 171.441 175.707 171.219 175.402 171.078C175.105 170.938 174.73 170.867 174.277 170.867C173.84 170.867 173.461 170.957 173.141 171.137C172.828 171.316 172.586 171.555 172.414 171.852C172.25 172.148 172.168 172.477 172.168 172.836H170.094C170.094 172.383 170.191 171.934 170.387 171.488C170.59 171.043 170.879 170.641 171.254 170.281C171.629 169.914 172.078 169.625 172.602 169.414C173.133 169.195 173.727 169.086 174.383 169.086C175.164 169.086 175.855 169.215 176.457 169.473C177.059 169.723 177.531 170.133 177.875 170.703C178.219 171.273 178.391 172.031 178.391 172.977V179.234C178.391 179.656 178.422 180.105 178.484 180.582C178.555 181.059 178.652 181.469 178.777 181.812V182H176.633C176.531 181.75 176.453 181.418 176.398 181.004C176.344 180.582 176.316 180.191 176.316 179.832ZM176.645 174.312L176.668 175.836H175.227C174.734 175.836 174.285 175.891 173.879 176C173.48 176.109 173.137 176.27 172.848 176.48C172.559 176.684 172.336 176.938 172.18 177.242C172.031 177.547 171.957 177.895 171.957 178.285C171.957 178.793 172.027 179.199 172.168 179.504C172.309 179.801 172.52 180.016 172.801 180.148C173.082 180.281 173.438 180.348 173.867 180.348C174.391 180.348 174.852 180.227 175.25 179.984C175.648 179.742 175.957 179.449 176.176 179.105C176.402 178.762 176.508 178.441 176.492 178.145L176.949 179.117C176.918 179.422 176.816 179.754 176.645 180.113C176.48 180.465 176.25 180.805 175.953 181.133C175.656 181.453 175.305 181.719 174.898 181.93C174.5 182.133 174.051 182.234 173.551 182.234C172.816 182.234 172.172 182.094 171.617 181.812C171.07 181.531 170.645 181.117 170.34 180.57C170.035 180.023 169.883 179.348 169.883 178.543C169.883 177.934 169.988 177.371 170.199 176.855C170.41 176.34 170.723 175.895 171.137 175.52C171.551 175.137 172.07 174.84 172.695 174.629C173.328 174.418 174.059 174.312 174.887 174.312H176.645ZM183.688 171.312V182H181.613V169.32H183.617L183.688 171.312ZM186.84 169.25L186.852 171.266C186.68 171.227 186.523 171.203 186.383 171.195C186.25 171.18 186.094 171.172 185.914 171.172C185.523 171.172 185.18 171.25 184.883 171.406C184.594 171.562 184.344 171.781 184.133 172.062C183.922 172.344 183.754 172.68 183.629 173.07C183.504 173.453 183.418 173.875 183.371 174.336L182.832 174.688C182.832 173.922 182.891 173.203 183.008 172.531C183.133 171.859 183.324 171.266 183.582 170.75C183.84 170.227 184.168 169.82 184.566 169.531C184.973 169.234 185.457 169.086 186.02 169.086C186.145 169.086 186.297 169.105 186.477 169.145C186.664 169.176 186.785 169.211 186.84 169.25ZM194.141 169.32V170.984H188.223V169.32H194.141ZM190.156 166.238H192.23V178.859C192.23 179.289 192.281 179.613 192.383 179.832C192.492 180.051 192.629 180.195 192.793 180.266C192.957 180.336 193.133 180.371 193.32 180.371C193.461 180.371 193.617 180.355 193.789 180.324C193.961 180.285 194.078 180.254 194.141 180.23L194.129 182C193.988 182.055 193.801 182.105 193.566 182.152C193.332 182.207 193.035 182.234 192.676 182.234C192.23 182.234 191.816 182.129 191.434 181.918C191.051 181.707 190.742 181.355 190.508 180.863C190.273 180.363 190.156 179.691 190.156 178.848V166.238ZM204.195 164V182H202.121V164H204.195ZM203.691 175.18L202.848 175.145C202.84 174.277 202.938 173.477 203.141 172.742C203.352 172 203.648 171.355 204.031 170.809C204.422 170.262 204.887 169.84 205.426 169.543C205.965 169.238 206.562 169.086 207.219 169.086C207.734 169.086 208.203 169.172 208.625 169.344C209.047 169.508 209.406 169.773 209.703 170.141C210 170.508 210.227 170.984 210.383 171.57C210.547 172.148 210.629 172.855 210.629 173.691V182H208.555V173.668C208.555 173.004 208.48 172.473 208.332 172.074C208.191 171.668 207.973 171.375 207.676 171.195C207.387 171.008 207.02 170.914 206.574 170.914C206.168 170.914 205.789 171.027 205.438 171.254C205.086 171.48 204.777 171.793 204.512 172.191C204.254 172.59 204.051 173.047 203.902 173.562C203.762 174.07 203.691 174.609 203.691 175.18ZM218.258 182.234C217.5 182.234 216.816 182.121 216.207 181.895C215.598 181.668 215.078 181.324 214.648 180.863C214.219 180.395 213.891 179.805 213.664 179.094C213.438 178.383 213.324 177.543 213.324 176.574V175.145C213.324 174.027 213.453 173.082 213.711 172.309C213.977 171.535 214.332 170.914 214.777 170.445C215.223 169.969 215.727 169.625 216.289 169.414C216.852 169.195 217.43 169.086 218.023 169.086C218.82 169.086 219.5 169.215 220.062 169.473C220.625 169.73 221.082 170.113 221.434 170.621C221.785 171.129 222.043 171.754 222.207 172.496C222.379 173.238 222.465 174.094 222.465 175.062V176.27H214.543V174.5H220.391V174.207C220.359 173.551 220.27 172.973 220.121 172.473C219.98 171.973 219.746 171.582 219.418 171.301C219.09 171.012 218.625 170.867 218.023 170.867C217.641 170.867 217.285 170.934 216.957 171.066C216.637 171.191 216.359 171.414 216.125 171.734C215.898 172.047 215.719 172.48 215.586 173.035C215.461 173.59 215.398 174.293 215.398 175.145V176.574C215.398 177.254 215.461 177.84 215.586 178.332C215.719 178.816 215.91 179.219 216.16 179.539C216.418 179.852 216.73 180.086 217.098 180.242C217.473 180.391 217.898 180.465 218.375 180.465C219.07 180.465 219.645 180.332 220.098 180.066C220.551 179.793 220.945 179.445 221.281 179.023L222.371 180.324C222.145 180.645 221.848 180.953 221.48 181.25C221.121 181.539 220.676 181.777 220.145 181.965C219.621 182.145 218.992 182.234 218.258 182.234ZM227.047 171.312V182H224.973V169.32H226.977L227.047 171.312ZM230.199 169.25L230.211 171.266C230.039 171.227 229.883 171.203 229.742 171.195C229.609 171.18 229.453 171.172 229.273 171.172C228.883 171.172 228.539 171.25 228.242 171.406C227.953 171.562 227.703 171.781 227.492 172.062C227.281 172.344 227.113 172.68 226.988 173.07C226.863 173.453 226.777 173.875 226.73 174.336L226.191 174.688C226.191 173.922 226.25 173.203 226.367 172.531C226.492 171.859 226.684 171.266 226.941 170.75C227.199 170.227 227.527 169.82 227.926 169.531C228.332 169.234 228.816 169.086 229.379 169.086C229.504 169.086 229.656 169.105 229.836 169.145C230.023 169.176 230.145 169.211 230.199 169.25ZM236.586 182.234C235.828 182.234 235.145 182.121 234.535 181.895C233.926 181.668 233.406 181.324 232.977 180.863C232.547 180.395 232.219 179.805 231.992 179.094C231.766 178.383 231.652 177.543 231.652 176.574V175.145C231.652 174.027 231.781 173.082 232.039 172.309C232.305 171.535 232.66 170.914 233.105 170.445C233.551 169.969 234.055 169.625 234.617 169.414C235.18 169.195 235.758 169.086 236.352 169.086C237.148 169.086 237.828 169.215 238.391 169.473C238.953 169.73 239.41 170.113 239.762 170.621C240.113 171.129 240.371 171.754 240.535 172.496C240.707 173.238 240.793 174.094 240.793 175.062V176.27H232.871V174.5H238.719V174.207C238.688 173.551 238.598 172.973 238.449 172.473C238.309 171.973 238.074 171.582 237.746 171.301C237.418 171.012 236.953 170.867 236.352 170.867C235.969 170.867 235.613 170.934 235.285 171.066C234.965 171.191 234.688 171.414 234.453 171.734C234.227 172.047 234.047 172.48 233.914 173.035C233.789 173.59 233.727 174.293 233.727 175.145V176.574C233.727 177.254 233.789 177.84 233.914 178.332C234.047 178.816 234.238 179.219 234.488 179.539C234.746 179.852 235.059 180.086 235.426 180.242C235.801 180.391 236.227 180.465 236.703 180.465C237.398 180.465 237.973 180.332 238.426 180.066C238.879 179.793 239.273 179.445 239.609 179.023L240.699 180.324C240.473 180.645 240.176 180.953 239.809 181.25C239.449 181.539 239.004 181.777 238.473 181.965C237.949 182.145 237.32 182.234 236.586 182.234Z" fill="#6D1010"/>
<path id="Vector" d="M55.8169 41.1723C55.7624 41.1177 55.6977 41.0744 55.6265 41.0448C55.5553 41.0152 55.4789 41 55.4018 41C55.3247 41 55.2484 41.0152 55.1771 41.0448C55.1059 41.0744 55.0412 41.1177 54.9868 41.1723L51.8774 44.2636L50.769 43.1836C50.7146 43.1289 50.6499 43.0856 50.5787 43.056C50.5075 43.0265 50.4311 43.0112 50.354 43.0112C50.2769 43.0112 50.2005 43.0265 50.1293 43.056C50.0581 43.0856 49.9934 43.1289 49.9389 43.1836L49.1723 43.9511C49.1177 44.0056 49.0744 44.0703 49.0448 44.1415C49.0152 44.2127 49 44.2891 49 44.3662C49 44.4433 49.0152 44.5197 49.0448 44.5909C49.0744 44.6621 49.1177 44.7268 49.1723 44.7812L51.4961 47.0957C51.6121 47.2059 51.766 47.2674 51.926 47.2674C52.086 47.2674 52.2399 47.2059 52.3559 47.0957L53.1172 46.333L56.6426 42.8081C56.7524 42.6982 56.8145 42.5493 56.8153 42.3939C56.8161 42.2385 56.7556 42.0891 56.6469 41.978L55.8169 41.1723ZM55.8169 48.9453C55.7624 48.8907 55.6977 48.8473 55.6265 48.8177C55.5553 48.7882 55.4789 48.7729 55.4018 48.7729C55.3247 48.7729 55.2484 48.7882 55.1771 48.8177C55.1059 48.8473 55.0412 48.8907 54.9868 48.9453L51.8774 52.0566L50.769 50.9775C50.7146 50.9229 50.6499 50.8795 50.5787 50.85C50.5075 50.8204 50.4311 50.8052 50.354 50.8052C50.2769 50.8052 50.2005 50.8204 50.1293 50.85C50.0581 50.8795 49.9934 50.9229 49.9389 50.9775L49.1723 51.7436C49.1177 51.7981 49.0744 51.8627 49.0448 51.934C49.0152 52.0052 49 52.0815 49 52.1587C49 52.2358 49.0152 52.3121 49.0448 52.3834C49.0744 52.4546 49.1177 52.5193 49.1723 52.5737L51.4902 54.893C51.6061 55.0033 51.7599 55.0647 51.9199 55.0647C52.0798 55.0647 52.2337 55.0033 52.3496 54.893L53.1162 54.1269L56.6416 50.6006C56.751 50.4914 56.8129 50.3434 56.8137 50.1889C56.8145 50.0343 56.7542 49.8857 56.646 49.7754L55.8169 48.9453ZM52.125 57.4077C50.8315 57.4077 49.7524 58.4575 49.7524 59.7514C49.7524 61.0454 50.8325 62.0952 52.125 62.0952C52.7466 62.0952 53.3427 61.8483 53.7823 61.4087C54.2218 60.9692 54.4687 60.373 54.4687 59.7514C54.4687 59.1298 54.2218 58.5337 53.7823 58.0942C53.3427 57.6546 52.7466 57.4077 52.125 57.4077ZM73.2187 58.1889H59.1562C58.949 58.1889 58.7503 58.2712 58.6038 58.4178C58.4573 58.5643 58.375 58.763 58.375 58.9702V60.5327C58.375 60.7399 58.4573 60.9386 58.6038 61.0851C58.7503 61.2316 58.949 61.3139 59.1562 61.3139H73.2187C73.4259 61.3139 73.6246 61.2316 73.7712 61.0851C73.9177 60.9386 74 60.7399 74 60.5327V58.9702C74 58.763 73.9177 58.5643 73.7712 58.4178C73.6246 58.2712 73.4259 58.1889 73.2187 58.1889ZM73.2187 42.5639H59.1562C58.949 42.5639 58.7503 42.6462 58.6038 42.7928C58.4573 42.9393 58.375 43.138 58.375 43.3452V44.9077C58.375 45.1149 58.4573 45.3136 58.6038 45.4601C58.7503 45.6066 58.949 45.6889 59.1562 45.6889H73.2187C73.4259 45.6889 73.6246 45.6066 73.7712 45.4601C73.9177 45.3136 74 45.1149 74 44.9077V43.3452C74 43.138 73.9177 42.9393 73.7712 42.7928C73.6246 42.6462 73.4259 42.5639 73.2187 42.5639ZM73.2187 50.3764H59.1562C58.949 50.3764 58.7503 50.4587 58.6038 50.6053C58.4573 50.7518 58.375 50.9505 58.375 51.1577V52.7202C58.375 52.9274 58.4573 53.1261 58.6038 53.2726C58.7503 53.4191 58.949 53.5014 59.1562 53.5014H73.2187C73.4259 53.5014 73.6246 53.4191 73.7712 53.2726C73.9177 53.1261 74 52.9274 74 52.7202V51.1577C74 50.9505 73.9177 50.7518 73.7712 50.6053C73.6246 50.4587 73.4259 50.3764 73.2187 50.3764Z" fill="#0D6EFD"/>
<path id="Arrow 1" d="M257.939 256.061C258.525 256.646 259.475 256.646 260.061 256.061L269.607 246.515C270.192 245.929 270.192 244.979 269.607 244.393C269.021 243.808 268.071 243.808 267.485 244.393L259 252.879L250.515 244.393C249.929 243.808 248.979 243.808 248.393 244.393C247.808 244.979 247.808 245.929 248.393 246.515L257.939 256.061ZM257.5 190V255H260.5V190H257.5Z" fill="black"/>
<path id="Vector_2" d="M271.219 178.109C271.219 184.797 265.797 190.219 259.109 190.219C252.422 190.219 247 184.797 247 178.109C247 171.422 252.422 166 259.109 166C265.797 166 271.219 171.422 271.219 178.109ZM257.709 184.521L266.693 175.537C266.998 175.232 266.998 174.737 266.693 174.432L265.588 173.327C265.283 173.022 264.788 173.022 264.483 173.327L257.156 180.654L253.735 177.233C253.43 176.928 252.936 176.928 252.631 177.233L251.526 178.338C251.221 178.643 251.221 179.138 251.526 179.443L256.604 184.521C256.909 184.826 257.404 184.826 257.709 184.521V184.521Z" fill="black"/>
<path id="Vector_3" d="M395 111.109C395 117.799 400.42 123.219 407.109 123.219C413.799 123.219 419.219 117.799 419.219 111.109C419.219 104.42 413.799 99 407.109 99C400.42 99 395 104.42 395 111.109ZM404.766 108.766C404.766 109.63 404.067 110.328 403.203 110.328C402.339 110.328 401.641 109.63 401.641 108.766C401.641 107.901 402.339 107.203 403.203 107.203C404.067 107.203 404.766 107.901 404.766 108.766ZM412.505 109.571C411.782 108.927 410.249 108.927 409.526 109.571L409.062 109.986C408.657 110.348 408.008 110.006 408.096 109.459C408.291 108.229 409.766 107.403 411.021 107.403C412.275 107.403 413.75 108.229 413.945 109.459C414.028 110.001 413.389 110.353 412.979 109.986L412.505 109.571ZM402.705 114.518C403.799 115.831 405.4 116.578 407.109 116.578C408.818 116.578 410.42 115.826 411.514 114.518C412.178 113.727 413.374 114.723 412.715 115.519C411.323 117.184 409.282 118.141 407.109 118.141C404.937 118.141 402.896 117.184 401.504 115.514C400.845 114.718 402.051 113.722 402.705 114.518Z" fill="#0D6EFD"/>
</g>
</svg>
